<svg xmlns="http://www.w3.org/2000/svg" width="78.626" height="78.626" viewBox="0 0 819 819" shape-rendering="geometricPrecision" text-rendering="geometricPrecision" image-rendering="optimizeQuality" fill-rule="evenodd" clip-rule="evenodd">
  <defs>
    <style>
<![CDATA[
    .fil0 {fill:#DE773F}
   ]]>
    </style>
  </defs>
  <path class="fil0" d="M410 0c226 0 409 183 409 410 0 226-183 409-409 409C183 819 0 636 0 410 0 183 183 0 410 0zm-48 355c-5 44-32 73-32 74-2 22 10 7-2 41-6 13-8 26-15 40-22 53-57 110-121 72-60-36 13-109 45-134 16-14 114-90 125-93zm9 54c14-57 6-88 70-110 36-12 109-41 137-8 80 92-157 117-207 118zm388 92c-33 72-32 107-98 168-167 157-423 125-545-49C-70 356 152 0 471 53c344 59 418 570 78 536-55-5-128-72-157-110-44-59-32-42 23-52 41-7 68-14 108-25 63-18 144-87 69-143-46-35-153 30-197 50 12-33 41-90 68-114 16-14 94-74 95-87-48 6-143 114-159 160-28 78-92 112-158 160-55 41-147 134-56 186 80 46 139-98 163-144 7 7 22 35 36 49 42 45 91 91 157 96 91 8 172-31 218-114zM30 434c12 212 195 368 405 355 211-12 366-196 354-405C777 173 593 18 384 30 174 42 17 226 30 434z" id="Layer_x0020_1"/>
</svg>
